# xmcd
#
# Track frame offsets:
#	150
#	13177
#	23784
#	35981
#	52841
#	65904
#	75324
#	86757
#	101873
#	112953
#	132673
#	143568
#	159167
#	170680
#	187974
#	202912
#	219975
#	235250
#	249490
#	283290
#	294037
#	308612
#
# Disc length: 4359 seconds
#
# Revision: 1
# Processed by: cddbd v1.5.2PL0 Copyright (c) Steve Scherf et al.
# Submitted via: EasyCDDAExtractor 12.0.7.1
#
DISCID=33110516
DTITLE=Various Artist - Iirsh Mix
DYEAR=2009
DGENRE=Irish Folk
TTITLE0=Paddy Reilly - The Rocky Road To Dublin
TTITLE1=The Pogues - If Should Fall From Grace With God
TTITLE2=Pogues/Dubliners - Whiskey In The Jar
TTITLE3=The Pogues - Dirty Old Town
TTITLE4=Rapalje - Drunken Sailor
TTITLE5=Dubliners - I Tell My Ma
TTITLE6=The Pogues - Streams Of Whiskey
TTITLE7=Galway Races - Dubliners
TTITLE8=Irish Descendents - Dance To The Fiddle
TTITLE9=Irish Descendents - Rattin' Bog
TTITLE10=Goats Don't Shave - Mary Mary
TTITLE11=Levellers - For Us All
TTITLE12=Great Big Sea - Mari-Mac
TTITLE13=Lack Of Limits - Man In The Back
TTITLE14=Lack Of Limits - The Kings Are Falling Down
TTITLE15=Goats Don't Shave - Las Vegas
TTITLE16=Jamie Clarke's Perfect - Victoria
TTITLE17=Great Big Sea - Lukey
TTITLE18=Midnight Court - Step It Out Mary
TTITLE19=Michael Flatley - Cry Of The Celts
TTITLE20=The Corrs - Toss The Feathers
TTITLE21=The Corrs - Joy Of The Life/Trout in The Bath
EXTD=
EXTT0=
EXTT1=
EXTT2=
EXTT3=
EXTT4=
EXTT5=
EXTT6=
EXTT7=
EXTT8=
EXTT9=
EXTT10=
EXTT11=
EXTT12=
EXTT13=
EXTT14=
EXTT15=
EXTT16=
EXTT17=
EXTT18=
EXTT19=
EXTT20=
EXTT21=
PLAYORDER=
